<?xml version='1.0' encoding='utf-8'?>
<!DOCTYPE svg PUBLIC '-//W3C//DTD SVG 1.1//EN' 'http://www.w3.org/Graphics/SVG/1.1/DTD/svg11.dtd'>
<svg version="1.1" xmlns="http://www.w3.org/2000/svg" viewBox="0 0 512 512" xmlns:xlink="http://www.w3.org/1999/xlink" enable-background="new 0 0 512 512">
  <g>
    <g>
      <path d="m174.2,408.7l22.9-3.1-3.9-24.8c0,0 82.3,44.6 150.9-16.9l-15.6-15.6c-48.6,49.6-122.1,15.3-122.1,15.3l24.1-3.8-3.1-22.9-52.1,7.3c-6.3,1-10.4,7.3-9.4,13.6l8.3,50.9z"/>
      <path d="m11,11v490h490v-490h-490zm467.1,467.1h-444.2v-350.3h444.1v350.3zm.1-372.2h-444.2v-72h444.1v72z"/>
      <rect width="22.9" x="410.3" y="57.9" height="22.9"/>
      <rect width="22.9" x="353" y="57.9" height="22.9"/>
      <rect width="22.9" x="295.6" y="57.9" height="22.9"/>
      <path d="m306.2,242.8l-24.1,3.8 3.1,22.9 52.1-7.3c6.3-1 10.4-7.3 9.4-13.6l-8.3-51.1-22.9,3.1 3.9,24.8c0,0-82.3-44.6-150.9,16.9l15.6,15.6c48.6-49.4 122.1-15.1 122.1-15.1z"/>
    </g>
  </g>
</svg>
