<svg width="45" height="42" viewBox="0 0 45 42" fill="none" xmlns="http://www.w3.org/2000/svg">
<rect x="1" y="1" width="43" height="40" rx="9" stroke="#FF5050" stroke-width="2"/>
<path fill-rule="evenodd" clip-rule="evenodd" d="M29.2174 27.2175C32.9274 23.5075 32.9274 17.4925 29.2174 13.7825C25.5075 10.0725 19.4924 10.0725 15.7824 13.7825C12.0724 17.4925 12.0724 23.5075 15.7824 27.2175C19.4924 30.9275 25.5075 30.9275 29.2174 27.2175ZM31.3388 29.3388C36.2203 24.4573 36.2203 16.5427 31.3388 11.6612C26.4572 6.77961 18.5427 6.77961 13.6611 11.6612C8.77955 16.5427 8.77955 24.4573 13.6611 29.3388C18.5427 34.2204 26.4572 34.2204 31.3388 29.3388Z" fill="#FF5050"/>
<rect x="13" y="14.1213" width="3" height="23" transform="rotate(-45 13 14.1213)" fill="#FF5050"/>
</svg>
