<svg width="257" height="246" viewBox="0 0 257 246" fill="none" xmlns="http://www.w3.org/2000/svg">
<path d="M0 0H257V246H0V0Z" fill="#AFAFAF"/>
<path d="M124.173 102V116H122.713V109.54H113.953V116H112.473V102H113.953V108.24H122.713V102H124.173ZM137.759 111.18H128.959C129.039 112.273 129.459 113.16 130.219 113.84C130.979 114.507 131.939 114.84 133.099 114.84C133.752 114.84 134.352 114.727 134.899 114.5C135.446 114.26 135.919 113.913 136.319 113.46L137.119 114.38C136.652 114.94 136.066 115.367 135.359 115.66C134.666 115.953 133.899 116.1 133.059 116.1C131.979 116.1 131.019 115.873 130.179 115.42C129.352 114.953 128.706 114.313 128.239 113.5C127.772 112.687 127.539 111.767 127.539 110.74C127.539 109.713 127.759 108.793 128.199 107.98C128.652 107.167 129.266 106.533 130.039 106.08C130.826 105.627 131.706 105.4 132.679 105.4C133.652 105.4 134.526 105.627 135.299 106.08C136.072 106.533 136.679 107.167 137.119 107.98C137.559 108.78 137.779 109.7 137.779 110.74L137.759 111.18ZM132.679 106.62C131.666 106.62 130.812 106.947 130.119 107.6C129.439 108.24 129.052 109.08 128.959 110.12H136.419C136.326 109.08 135.932 108.24 135.239 107.6C134.559 106.947 133.706 106.62 132.679 106.62ZM147.854 106.74H143.874V116H142.454V106.74H138.474V105.48H147.854V106.74ZM118.866 134.72C118.866 136.36 118.326 137.647 117.246 138.58C116.166 139.513 114.64 140.02 112.666 140.1V143.88H111.286V140.12C109.326 140.04 107.806 139.533 106.726 138.6C105.66 137.653 105.126 136.36 105.126 134.72C105.126 133.093 105.66 131.82 106.726 130.9C107.806 129.98 109.326 129.48 111.286 129.4V125.16H112.666V129.4C114.64 129.493 116.166 130 117.246 130.92C118.326 131.84 118.866 133.107 118.866 134.72ZM106.526 134.72C106.526 135.973 106.926 136.953 107.726 137.66C108.54 138.367 109.726 138.767 111.286 138.86V130.66C109.74 130.74 108.56 131.133 107.746 131.84C106.933 132.533 106.526 133.493 106.526 134.72ZM112.666 138.86C114.226 138.78 115.413 138.387 116.226 137.68C117.053 136.973 117.466 135.987 117.466 134.72C117.466 133.48 117.053 132.513 116.226 131.82C115.413 131.127 114.226 130.74 112.666 130.66V138.86ZM126.21 140.1C125.196 140.1 124.283 139.873 123.47 139.42C122.656 138.953 122.016 138.313 121.55 137.5C121.083 136.687 120.85 135.767 120.85 134.74C120.85 133.713 121.083 132.793 121.55 131.98C122.016 131.167 122.656 130.533 123.47 130.08C124.283 129.627 125.196 129.4 126.21 129.4C127.223 129.4 128.136 129.627 128.95 130.08C129.763 130.533 130.396 131.167 130.85 131.98C131.316 132.793 131.55 133.713 131.55 134.74C131.55 135.767 131.316 136.687 130.85 137.5C130.396 138.313 129.763 138.953 128.95 139.42C128.136 139.873 127.223 140.1 126.21 140.1ZM126.21 138.84C126.956 138.84 127.623 138.673 128.21 138.34C128.81 137.993 129.276 137.507 129.61 136.88C129.943 136.253 130.11 135.54 130.11 134.74C130.11 133.94 129.943 133.227 129.61 132.6C129.276 131.973 128.81 131.493 128.21 131.16C127.623 130.813 126.956 130.64 126.21 130.64C125.463 130.64 124.79 130.813 124.19 131.16C123.603 131.493 123.136 131.973 122.79 132.6C122.456 133.227 122.29 133.94 122.29 134.74C122.29 135.54 122.456 136.253 122.79 136.88C123.136 137.507 123.603 137.993 124.19 138.34C124.79 138.673 125.463 138.84 126.21 138.84ZM141.594 130.74H137.614V140H136.194V130.74H132.214V129.48H141.594V130.74ZM147.499 140.1C146.485 140.1 145.572 139.873 144.759 139.42C143.945 138.953 143.305 138.313 142.839 137.5C142.372 136.687 142.139 135.767 142.139 134.74C142.139 133.713 142.372 132.793 142.839 131.98C143.305 131.167 143.945 130.533 144.759 130.08C145.572 129.627 146.485 129.4 147.499 129.4C148.512 129.4 149.425 129.627 150.239 130.08C151.052 130.533 151.685 131.167 152.139 131.98C152.605 132.793 152.839 133.713 152.839 134.74C152.839 135.767 152.605 136.687 152.139 137.5C151.685 138.313 151.052 138.953 150.239 139.42C149.425 139.873 148.512 140.1 147.499 140.1ZM147.499 138.84C148.245 138.84 148.912 138.673 149.499 138.34C150.099 137.993 150.565 137.507 150.899 136.88C151.232 136.253 151.399 135.54 151.399 134.74C151.399 133.94 151.232 133.227 150.899 132.6C150.565 131.973 150.099 131.493 149.499 131.16C148.912 130.813 148.245 130.64 147.499 130.64C146.752 130.64 146.079 130.813 145.479 131.16C144.892 131.493 144.425 131.973 144.079 132.6C143.745 133.227 143.579 133.94 143.579 134.74C143.579 135.54 143.745 136.253 144.079 136.88C144.425 137.507 144.892 137.993 145.479 138.34C146.079 138.673 146.752 138.84 147.499 138.84Z" fill="white"/>
</svg>
