<svg width="45" height="42" viewBox="0 0 45 42" fill="none" xmlns="http://www.w3.org/2000/svg">
<rect x="1" y="1" width="43" height="40" rx="9" stroke="#62675D" stroke-width="2"/>
<path d="M27.0449 12.6946L32.2176 18.197L18.9653 31L16.9718 29.9379L15.8751 28.3775L14.3854 27.1867L13.9653 25L27.0449 12.6946Z" fill="#62675D"/>
<path d="M16.232 31.2492L12.9114 31.7367C12.5654 31.7876 12.2755 31.4765 12.3504 31.1349L13.062 27.8923L13.1244 28.082L13.1709 28.2232L13.2871 28.3161L14.721 29.4624L15.7766 30.9643L15.8539 31.0742L15.9758 31.1306L16.232 31.2492Z" stroke="#62675D"/>
<path d="M29.5179 10.3699C30.3227 9.61331 31.5884 9.65241 32.345 10.4572L34.7779 13.0452C35.5345 13.85 35.4954 15.1158 34.6906 15.8723L33.0035 17.4583L27.8308 11.9558L29.5179 10.3699Z" fill="#62675D"/>
</svg>
